<?xml version="1.0" encoding="UTF-8" standalone="no"?>
<svg
   xmlns:dc="http://purl.org/dc/elements/1.1/"
   xmlns:cc="http://creativecommons.org/ns#"
   xmlns:rdf="http://www.w3.org/1999/02/22-rdf-syntax-ns#"
   xmlns:svg="http://www.w3.org/2000/svg"
   xmlns="http://www.w3.org/2000/svg"
   viewBox="0 0 682.66669 136.008"
   height="136.008"
   width="682.66669"
   xml:space="preserve"
   id="svg2"
   version="1.1"><metadata
     id="metadata8"><rdf:RDF><cc:Work
         rdf:about=""><dc:format>image/svg+xml</dc:format><dc:type
           rdf:resource="http://purl.org/dc/dcmitype/StillImage" /></cc:Work></rdf:RDF></metadata><defs
     id="defs6"><clipPath
       id="clipPath18"
       clipPathUnits="userSpaceOnUse"><path
         id="path16"
         d="M 0,102.006 H 512 V 0 H 0 Z" /></clipPath><clipPath
       id="clipPath26"
       clipPathUnits="userSpaceOnUse"><path
         id="path24"
         d="m 163.463,82.5663 h 44.082 V 38.4845 h -44.082 z" /></clipPath><clipPath
       id="clipPath42"
       clipPathUnits="userSpaceOnUse"><path
         id="path40"
         d="m 141.423,60.5254 h 44.081 V 16.4435 h -44.081 z" /></clipPath><clipPath
       id="clipPath58"
       clipPathUnits="userSpaceOnUse"><path
         id="path56"
         d="m 119.382,82.5663 h 44.081 V 38.4845 h -44.081 z" /></clipPath><clipPath
       id="clipPath74"
       clipPathUnits="userSpaceOnUse"><path
         id="path72"
         d="m 152.923,95.905 c -3.557,-1.444 -6.75,-3.564 -9.487,-6.303 v 0 c -0.916,-0.915 -0.916,-2.4 0,-3.315 v 0 c 0.916,-0.917 2.401,-0.917 3.317,0 v 0 c 9.349,9.348 24.561,9.348 33.91,0 v 0 c 0.458,-0.458 1.058,-0.688 1.658,-0.688 v 0 c 0.601,0 1.201,0.23 1.659,0.688 v 0 c 0.916,0.915 0.916,2.4 0,3.315 v 0 h 0.001 c -2.739,2.739 -5.93,4.859 -9.488,6.303 v 0 c -3.435,1.394 -7.063,2.101 -10.785,2.101 v 0 c -3.722,0 -7.35,-0.707 -10.785,-2.101" /></clipPath><linearGradient
       id="linearGradient84"
       spreadMethod="pad"
       gradientTransform="matrix(41.917576,0,0,-41.917576,142.74924,91.802536)"
       gradientUnits="userSpaceOnUse"
       y2="0"
       x2="1"
       y1="0"
       x1="0"><stop
         id="stop80"
         offset="0"
         style="stop-opacity:1;stop-color:#b41414" /><stop
         id="stop82"
         offset="1"
         style="stop-opacity:1;stop-color:#c82828" /></linearGradient><clipPath
       id="clipPath94"
       clipPathUnits="userSpaceOnUse"><path
         id="path92"
         d="m 163.701,89.468 c 0,0 0.001,0 0.001,0 v 0 c 0,0 0,0 0.001,0 v 0 z m -14.379,-5.96 c -0.866,-0.866 -0.866,-2.27 0,-3.136 v 0 c 0.866,-0.866 2.269,-0.866 3.135,0 v 0 c 6.201,6.2 16.29,6.2 22.49,0 v 0 c 0.432,-0.433 0.999,-0.649 1.567,-0.649 v 0 c 0.568,0 1.135,0.216 1.568,0.649 v 0 c 0.866,0.866 0.866,2.27 0,3.136 v 0 c -3.844,3.843 -8.951,5.96 -14.38,5.96 v 0 c -5.429,0 -10.536,-2.117 -14.38,-5.96" /></clipPath><linearGradient
       id="linearGradient104"
       spreadMethod="pad"
       gradientTransform="matrix(30.059036,0,0,-30.059036,148.67256,84.595589)"
       gradientUnits="userSpaceOnUse"
       y2="0"
       x2="1"
       y1="0"
       x1="0"><stop
         id="stop100"
         offset="0"
         style="stop-opacity:1;stop-color:#b41414" /><stop
         id="stop102"
         offset="1"
         style="stop-opacity:1;stop-color:#c82828" /></linearGradient><clipPath
       id="clipPath114"
       clipPathUnits="userSpaceOnUse"><path
         id="path112"
         d="m 154.959,77.842 c -0.861,-0.861 -0.861,-2.258 0,-3.119 v 0 c 0.862,-0.862 2.258,-0.862 3.12,0 v 0 c 3.101,3.1 8.146,3.1 11.248,0 v 0 c 0.43,-0.431 0.994,-0.647 1.56,-0.647 v 0 c 0.564,0 1.128,0.216 1.558,0.647 v 0 c 0.862,0.861 0.862,2.258 0,3.119 v 0 c -2.336,2.337 -5.441,3.624 -8.742,3.624 v 0 c -3.301,0 -6.406,-1.287 -8.744,-3.624" /></clipPath><linearGradient
       id="linearGradient124"
       spreadMethod="pad"
       gradientTransform="matrix(18.778217,0,0,-18.778217,154.31367,77.771202)"
       gradientUnits="userSpaceOnUse"
       y2="0"
       x2="1"
       y1="0"
       x1="0"><stop
         id="stop120"
         offset="0"
         style="stop-opacity:1;stop-color:#b41414" /><stop
         id="stop122"
         offset="1"
         style="stop-opacity:1;stop-color:#c82828" /></linearGradient><clipPath
       id="clipPath134"
       clipPathUnits="userSpaceOnUse"><path
         id="path132"
         d="m 160.958,69.849 c 0,-1.499 1.215,-2.714 2.714,-2.714 v 0 c 1.5,0 2.715,1.215 2.715,2.714 v 0 c 0,1.499 -1.215,2.714 -2.715,2.714 v 0 c -1.499,0 -2.714,-1.215 -2.714,-2.714" /></clipPath><linearGradient
       id="linearGradient144"
       spreadMethod="pad"
       gradientTransform="matrix(5.4294586,0,0,-5.4294586,160.95737,69.848907)"
       gradientUnits="userSpaceOnUse"
       y2="0"
       x2="1"
       y1="0"
       x1="0"><stop
         id="stop140"
         offset="0"
         style="stop-opacity:1;stop-color:#b41414" /><stop
         id="stop142"
         offset="1"
         style="stop-opacity:1;stop-color:#c82828" /></linearGradient><clipPath
       id="clipPath154"
       clipPathUnits="userSpaceOnUse"><path
         id="path152"
         d="M 5.5,23.466 H 17.348 V 91.925 H 5.5 Z" /></clipPath><linearGradient
       id="linearGradient164"
       spreadMethod="pad"
       gradientTransform="matrix(11.848714,0,0,-11.848714,5.5,57.694885)"
       gradientUnits="userSpaceOnUse"
       y2="0"
       x2="1"
       y1="0"
       x1="0"><stop
         id="stop160"
         offset="0"
         style="stop-opacity:1;stop-color:#b41414" /><stop
         id="stop162"
         offset="1"
         style="stop-opacity:1;stop-color:#c82828" /></linearGradient><clipPath
       id="clipPath174"
       clipPathUnits="userSpaceOnUse"><path
         id="path172"
         d="M 40.011,72.059 C 36.438,69.912 33.665,66.84 31.69,62.843 v 0 C 29.714,58.846 28.727,54.356 28.727,49.372 v 0 -0.564 c 0,-7.962 2.156,-14.333 6.466,-19.113 v 0 c 4.31,-4.78 10.054,-7.17 17.232,-7.17 v 0 c 4.702,0 8.847,1.081 12.436,3.244 v 0 c 3.589,2.163 6.348,5.219 8.275,9.169 v 0 c 1.928,3.949 2.891,8.432 2.891,13.447 v 0 l -0.046,2.68 C 75.636,58.369 73.325,64.23 69.046,68.65 v 0 c -4.279,4.42 -9.85,6.63 -16.715,6.63 v 0 c -4.64,0 -8.746,-1.074 -12.32,-3.221 M 43.397,36.09 c -2.163,2.962 -3.244,7.06 -3.244,12.295 v 0 c 0,5.893 1.097,10.32 3.291,13.283 v 0 c 2.194,2.962 5.157,4.443 8.887,4.443 v 0 c 3.792,0 6.794,-1.504 9.003,-4.514 v 0 c 2.21,-3.009 3.316,-7.084 3.316,-12.225 v 0 c 0,-5.798 -1.074,-10.202 -3.221,-13.212 v 0 c -2.147,-3.009 -5.148,-4.513 -9.004,-4.513 v 0 c -3.856,0 -6.865,1.48 -9.028,4.443" /></clipPath><linearGradient
       id="linearGradient184"
       spreadMethod="pad"
       gradientTransform="matrix(47.300819,0,0,-47.300819,28.727241,48.902386)"
       gradientUnits="userSpaceOnUse"
       y2="0"
       x2="1"
       y1="0"
       x1="0"><stop
         id="stop180"
         offset="0"
         style="stop-opacity:1;stop-color:#b41414" /><stop
         id="stop182"
         offset="1"
         style="stop-opacity:1;stop-color:#c82828" /></linearGradient><clipPath
       id="clipPath194"
       clipPathUnits="userSpaceOnUse"><path
         id="path192"
         d="M 75.934,91.924 V 82.333 H 97.092 V 23.466 h 11.802 v 58.867 h 21.347 v 9.591 z" /></clipPath><linearGradient
       id="linearGradient204"
       spreadMethod="pad"
       gradientTransform="matrix(54.306595,0,0,-54.306595,75.934021,57.694885)"
       gradientUnits="userSpaceOnUse"
       y2="0"
       x2="1"
       y1="0"
       x1="0"><stop
         id="stop200"
         offset="0"
         style="stop-opacity:1;stop-color:#b41414" /><stop
         id="stop202"
         offset="1"
         style="stop-opacity:1;stop-color:#c82828" /></linearGradient><clipPath
       id="clipPath214"
       clipPathUnits="userSpaceOnUse"><path
         id="path212"
         d="m 218.816,88.163 c -4.498,-3.574 -6.747,-8.119 -6.747,-13.636 v 0 c 0,-6.3 3.119,-11.409 9.357,-15.328 v 0 c 3.26,-2.036 7.647,-3.887 13.164,-5.547 v 0 c 5.518,-1.663 9.333,-3.308 11.45,-4.938 v 0 c 2.116,-1.63 3.174,-3.949 3.174,-6.958 v 0 c 0,-2.759 -1.043,-4.977 -3.127,-6.653 v 0 c -2.084,-1.678 -5.196,-2.516 -9.333,-2.516 v 0 c -4.796,0 -8.48,1.066 -11.05,3.197 v 0 c -2.571,2.131 -3.856,5.141 -3.856,9.028 v 0 h -11.895 c 0,-4.295 1.152,-8.056 3.456,-11.284 v 0 c 2.304,-3.229 5.532,-5.76 9.686,-7.594 v 0 c 4.153,-1.834 8.705,-2.751 13.659,-2.751 v 0 c 7.491,0 13.424,1.685 17.797,5.055 v 0 c 4.372,3.369 6.559,7.907 6.559,13.612 v 0 c 0,3.51 -0.753,6.574 -2.257,9.192 v 0 c -1.505,2.617 -3.871,4.936 -7.1,6.959 v 0 c -3.229,2.022 -7.508,3.824 -12.836,5.407 v 0 c -5.329,1.583 -9.153,3.213 -11.474,4.889 v 0 c -2.319,1.678 -3.479,3.77 -3.479,6.278 v 0 c 0,2.977 1.074,5.297 3.221,6.959 v 0 c 2.148,1.661 5.164,2.492 9.051,2.492 v 0 c 4.169,0 7.374,-1.012 9.615,-3.033 v 0 c 2.242,-2.022 3.363,-4.82 3.363,-8.394 v 0 h 11.848 c 0,3.95 -1.065,7.548 -3.197,10.791 v 0 c -2.132,3.245 -5.062,5.745 -8.793,7.5 v 0 c -3.729,1.756 -7.976,2.633 -12.741,2.633 v 0 c -7.178,0 -13.017,-1.787 -17.515,-5.36" /></clipPath><linearGradient
       id="linearGradient224"
       spreadMethod="pad"
       gradientTransform="matrix(51.156353,0,0,-51.156353,209.95302,58.353146)"
       gradientUnits="userSpaceOnUse"
       y2="0"
       x2="1"
       y1="0"
       x1="0"><stop
         id="stop220"
         offset="0"
         style="stop-opacity:1;stop-color:#b41414" /><stop
         id="stop222"
         offset="1"
         style="stop-opacity:1;stop-color:#c82828" /></linearGradient><clipPath
       id="clipPath234"
       clipPathUnits="userSpaceOnUse"><path
         id="path232"
         d="m 273.757,68.932 c -3.636,-4.67 -5.454,-10.986 -5.454,-18.948 v 0 c 0,-8.37 1.834,-14.929 5.501,-19.677 v 0 c 3.668,-4.75 8.541,-7.124 14.623,-7.124 v 0 c 5.328,0 9.655,1.755 12.978,5.266 v 0 -23.885 h 11.425 v 70.434 h -10.156 l -0.658,-5.031 c -3.322,3.981 -7.82,5.971 -13.495,5.971 v 0 c -6.206,0 -11.128,-2.335 -14.764,-7.006 m 9.052,-32.184 c -2.054,2.962 -3.081,7.045 -3.081,12.249 v 0 c 0,6.017 1.043,10.485 3.128,13.399 v 0 c 2.084,2.916 4.945,4.373 8.58,4.373 v 0 c 4.452,0 7.774,-1.849 9.969,-5.547 v 0 -23.134 c -2.195,-3.856 -5.549,-5.783 -10.062,-5.783 v 0 c -3.637,0 -6.481,1.481 -8.534,4.443" /></clipPath><linearGradient
       id="linearGradient244"
       spreadMethod="pad"
       gradientTransform="matrix(44.526714,0,0,-44.526714,268.30322,40.250942)"
       gradientUnits="userSpaceOnUse"
       y2="0"
       x2="1"
       y1="0"
       x1="0"><stop
         id="stop240"
         offset="0"
         style="stop-opacity:1;stop-color:#b41414" /><stop
         id="stop242"
         offset="1"
         style="stop-opacity:1;stop-color:#c82828" /></linearGradient><clipPath
       id="clipPath254"
       clipPathUnits="userSpaceOnUse"><path
         id="path252"
         d="M 355.57,74.998 V 38.464 c -1.943,-3.98 -5.689,-5.971 -11.238,-5.971 v 0 c -5.36,0 -8.04,3.228 -8.04,9.685 v 0 32.82 h -11.424 v -32.96 c 0,-6.113 1.417,-10.783 4.254,-14.012 v 0 c 2.837,-3.228 7.014,-4.843 12.531,-4.843 v 0 c 6.174,0 10.939,1.975 14.293,5.925 v 0 l 0.282,-4.984 h 10.767 v 50.874 z" /></clipPath><linearGradient
       id="linearGradient264"
       spreadMethod="pad"
       gradientTransform="matrix(42.128761,0,0,-42.128761,324.86673,49.090462)"
       gradientUnits="userSpaceOnUse"
       y2="0"
       x2="1"
       y1="0"
       x1="0"><stop
         id="stop260"
         offset="0"
         style="stop-opacity:1;stop-color:#b41414" /><stop
         id="stop262"
         offset="1"
         style="stop-opacity:1;stop-color:#c82828" /></linearGradient><clipPath
       id="clipPath274"
       clipPathUnits="userSpaceOnUse"><path
         id="path272"
         d="m 388.412,73.869 c -3.181,-1.378 -5.696,-3.283 -7.546,-5.713 v 0 c -1.849,-2.429 -2.774,-5.038 -2.774,-7.828 v 0 h 11.425 c 0,2.006 0.831,3.659 2.492,4.961 v 0 c 1.662,1.3 3.794,1.951 6.395,1.951 v 0 c 3.009,0 5.25,-0.792 6.724,-2.374 v 0 c 1.472,-1.583 2.21,-3.691 2.21,-6.325 v 0 -3.339 h -7.006 c -7.492,0 -13.252,-1.449 -17.279,-4.348 v 0 c -4.029,-2.9 -6.042,-7.061 -6.042,-12.483 v 0 c 0,-4.295 1.614,-7.9 4.843,-10.816 v 0 c 3.228,-2.914 7.397,-4.372 12.506,-4.372 v 0 c 5.267,0 9.717,1.896 13.354,5.69 v 0 c 0.376,-2.194 0.814,-3.777 1.316,-4.749 v 0 h 11.661 v 0.799 c -1.286,2.727 -1.928,6.379 -1.928,10.955 v 0 22.945 c -0.094,5.424 -1.913,9.631 -5.454,12.624 v 0 c -3.543,2.995 -8.291,4.491 -14.246,4.491 v 0 c -3.92,0 -7.469,-0.689 -10.651,-2.069 m 2.21,-39.566 c -1.457,1.301 -2.187,3.049 -2.187,5.242 v 0 c 0,2.697 1.067,4.781 3.198,6.254 v 0 c 2.131,1.474 5.313,2.21 9.545,2.21 v 0 h 6.16 v -9.592 c -1.004,-1.849 -2.5,-3.322 -4.491,-4.42 v 0 c -1.991,-1.097 -4.114,-1.646 -6.37,-1.646 v 0 c -2.446,0 -4.396,0.651 -5.855,1.952" /></clipPath><linearGradient
       id="linearGradient284"
       spreadMethod="pad"
       gradientTransform="matrix(43.680378,0,0,-43.680378,377.01047,49.560646)"
       gradientUnits="userSpaceOnUse"
       y2="0"
       x2="1"
       y1="0"
       x1="0"><stop
         id="stop280"
         offset="0"
         style="stop-opacity:1;stop-color:#b41414" /><stop
         id="stop282"
         offset="1"
         style="stop-opacity:1;stop-color:#c82828" /></linearGradient><clipPath
       id="clipPath294"
       clipPathUnits="userSpaceOnUse"><path
         id="path292"
         d="m 441.896,69.309 -0.282,5.689 H 430.706 V 24.124 h 11.426 v 34.794 c 1.817,4.012 5.343,6.018 10.579,6.018 v 0 c 1.598,0 3.151,-0.125 4.655,-0.376 v 0 l 0.046,10.72 c -1.065,0.439 -2.413,0.658 -4.043,0.658 v 0 c -4.891,0 -8.715,-2.21 -11.473,-6.629" /></clipPath><linearGradient
       id="linearGradient304"
       spreadMethod="pad"
       gradientTransform="matrix(26.706625,0,0,-26.706625,430.70584,50.030834)"
       gradientUnits="userSpaceOnUse"
       y2="0"
       x2="1"
       y1="0"
       x1="0"><stop
         id="stop300"
         offset="0"
         style="stop-opacity:1;stop-color:#b41414" /><stop
         id="stop302"
         offset="1"
         style="stop-opacity:1;stop-color:#c82828" /></linearGradient><clipPath
       id="clipPath314"
       clipPathUnits="userSpaceOnUse"><path
         id="path312"
         d="m 472.928,72.599 c -3.541,-2.225 -6.292,-5.336 -8.252,-9.333 v 0 c -1.958,-3.996 -2.937,-8.533 -2.937,-13.611 v 0 -1.41 c 0,-7.587 2.248,-13.66 6.746,-18.22 v 0 c 4.498,-4.561 10.367,-6.842 17.609,-6.842 v 0 c 4.231,0 8.047,0.839 11.449,2.516 v 0 c 3.401,1.676 6.12,4.035 8.157,7.076 v 0 l -6.159,5.877 c -3.291,-4.231 -7.553,-6.347 -12.79,-6.347 v 0 c -3.728,0 -6.824,1.223 -9.285,3.667 v 0 c -2.461,2.445 -3.863,5.768 -4.208,9.968 v 0 H 506.5 v 4.608 c 0,8.087 -1.889,14.341 -5.666,18.761 v 0 c -3.778,4.419 -9.129,6.629 -16.057,6.629 v 0 c -4.357,0 -8.306,-1.113 -11.849,-3.339 m 4.209,-9.121 c 1.928,2.194 4.458,3.291 7.593,3.291 v 0 c 3.166,0 5.643,-0.979 7.43,-2.938 v 0 c 1.786,-1.96 2.805,-4.851 3.056,-8.675 v 0 -0.846 h -21.77 c 0.533,3.917 1.763,6.974 3.691,9.168" /></clipPath><linearGradient
       id="linearGradient324"
       spreadMethod="pad"
       gradientTransform="matrix(44.76181,0,0,-44.76181,461.73819,49.560646)"
       gradientUnits="userSpaceOnUse"
       y2="0"
       x2="1"
       y1="0"
       x1="0"><stop
         id="stop320"
         offset="0"
         style="stop-opacity:1;stop-color:#b41414" /><stop
         id="stop322"
         offset="1"
         style="stop-opacity:1;stop-color:#c82828" /></linearGradient></defs><g
     transform="matrix(1.3333333,0,0,-1.3333333,0,136.008)"
     id="g10"><g
       id="g12"><g
         clip-path="url(#clipPath18)"
         id="g14"><g
           id="g20"><g
             id="g22" /><g
             id="g34"><g
               style="opacity:0.41999799"
               id="g32"
               clip-path="url(#clipPath26)"><g
                 id="g30"
                 transform="translate(181.0962,78.1583)"><path
                   id="path28"
                   style="fill:#646464;fill-opacity:1;fill-rule:nonzero;stroke:none"
                   d="M 0,0 4.408,4.408 26.449,-17.633 4.408,-39.674 0,-35.266 17.633,-17.633 Z m -8.816,-8.816 4.408,4.408 13.224,-13.225 -13.224,-13.224 -4.408,4.408 8.816,8.816 z m -8.817,-8.817 4.408,4.408 4.409,-4.408 -4.409,-4.408 z" /></g></g></g></g><g
           id="g36"><g
             id="g38" /><g
             id="g50"><g
               style="opacity:0.41999799"
               id="g48"
               clip-path="url(#clipPath42)"><g
                 id="g46"
                 transform="translate(181.0962,42.8926)"><path
                   id="path44"
                   style="fill:#646464;fill-opacity:1;fill-rule:nonzero;stroke:none"
                   d="M 0,0 4.408,-4.408 -17.633,-26.449 -39.674,-4.408 -35.266,0 -17.633,-17.633 Z M -8.816,8.816 -4.408,4.408 -17.633,-8.816 -30.857,4.408 -26.449,8.816 -17.633,0 Z m -8.817,8.817 4.408,-4.408 -4.408,-4.409 -4.408,4.409 z" /></g></g></g></g><g
           id="g52"><g
             id="g54" /><g
             id="g66"><g
               style="opacity:0.41999799"
               id="g64"
               clip-path="url(#clipPath58)"><g
                 id="g62"
                 transform="translate(145.8306,42.8926)"><path
                   id="path60"
                   style="fill:#646464;fill-opacity:1;fill-rule:nonzero;stroke:none"
                   d="M 0,0 -4.408,-4.408 -26.449,17.633 -4.408,39.674 0,35.266 -17.633,17.633 Z M 8.816,8.816 4.408,4.408 -8.816,17.633 4.408,30.857 8.816,26.449 0,17.633 Z m 8.817,8.817 -4.408,-4.408 -4.409,4.408 4.409,4.408 z" /></g></g></g></g></g></g><g
       id="g68"><g
         clip-path="url(#clipPath74)"
         id="g70"><g
           id="g76"><g
             id="g78"><path
               id="path86"
               style="fill:url(#linearGradient84);stroke:none"
               d="m 152.923,95.905 c -3.557,-1.444 -6.75,-3.564 -9.487,-6.303 v 0 c -0.916,-0.915 -0.916,-2.4 0,-3.315 v 0 c 0.916,-0.917 2.401,-0.917 3.317,0 v 0 c 9.349,9.348 24.561,9.348 33.91,0 v 0 c 0.458,-0.458 1.058,-0.688 1.658,-0.688 v 0 c 0.601,0 1.201,0.23 1.659,0.688 v 0 c 0.916,0.915 0.916,2.4 0,3.315 v 0 h 0.001 c -2.739,2.739 -5.93,4.859 -9.488,6.303 v 0 c -3.435,1.394 -7.063,2.101 -10.785,2.101 v 0 c -3.722,0 -7.35,-0.707 -10.785,-2.101" /></g></g></g></g><g
       id="g88"><g
         clip-path="url(#clipPath94)"
         id="g90"><g
           id="g96"><g
             id="g98"><path
               id="path106"
               style="fill:url(#linearGradient104);stroke:none"
               d="m 163.701,89.468 c 0,0 0.001,0 0.001,0 v 0 c 0,0 0,0 0.001,0 v 0 z m -14.379,-5.96 c -0.866,-0.866 -0.866,-2.27 0,-3.136 v 0 c 0.866,-0.866 2.269,-0.866 3.135,0 v 0 c 6.201,6.2 16.29,6.2 22.49,0 v 0 c 0.432,-0.433 0.999,-0.649 1.567,-0.649 v 0 c 0.568,0 1.135,0.216 1.568,0.649 v 0 c 0.866,0.866 0.866,2.27 0,3.136 v 0 c -3.844,3.843 -8.951,5.96 -14.38,5.96 v 0 c -5.429,0 -10.536,-2.117 -14.38,-5.96" /></g></g></g></g><g
       id="g108"><g
         clip-path="url(#clipPath114)"
         id="g110"><g
           id="g116"><g
             id="g118"><path
               id="path126"
               style="fill:url(#linearGradient124);stroke:none"
               d="m 154.959,77.842 c -0.861,-0.861 -0.861,-2.258 0,-3.119 v 0 c 0.862,-0.862 2.258,-0.862 3.12,0 v 0 c 3.101,3.1 8.146,3.1 11.248,0 v 0 c 0.43,-0.431 0.994,-0.647 1.56,-0.647 v 0 c 0.564,0 1.128,0.216 1.558,0.647 v 0 c 0.862,0.861 0.862,2.258 0,3.119 v 0 c -2.336,2.337 -5.441,3.624 -8.742,3.624 v 0 c -3.301,0 -6.406,-1.287 -8.744,-3.624" /></g></g></g></g><g
       id="g128"><g
         clip-path="url(#clipPath134)"
         id="g130"><g
           id="g136"><g
             id="g138"><path
               id="path146"
               style="fill:url(#linearGradient144);stroke:none"
               d="m 160.958,69.849 c 0,-1.499 1.215,-2.714 2.714,-2.714 v 0 c 1.5,0 2.715,1.215 2.715,2.714 v 0 c 0,1.499 -1.215,2.714 -2.715,2.714 v 0 c -1.499,0 -2.714,-1.215 -2.714,-2.714" /></g></g></g></g><g
       id="g148"><g
         clip-path="url(#clipPath154)"
         id="g150"><g
           id="g156"><g
             id="g158"><path
               id="path166"
               style="fill:url(#linearGradient164);stroke:none"
               d="M 5.5,23.466 H 17.348 V 91.925 H 5.5 Z" /></g></g></g></g><g
       id="g168"><g
         clip-path="url(#clipPath174)"
         id="g170"><g
           id="g176"><g
             id="g178"><path
               id="path186"
               style="fill:url(#linearGradient184);stroke:none"
               d="M 40.011,72.059 C 36.438,69.912 33.665,66.84 31.69,62.843 v 0 C 29.714,58.846 28.727,54.356 28.727,49.372 v 0 -0.564 c 0,-7.962 2.156,-14.333 6.466,-19.113 v 0 c 4.31,-4.78 10.054,-7.17 17.232,-7.17 v 0 c 4.702,0 8.847,1.081 12.436,3.244 v 0 c 3.589,2.163 6.348,5.219 8.275,9.169 v 0 c 1.928,3.949 2.891,8.432 2.891,13.447 v 0 l -0.046,2.68 C 75.636,58.369 73.325,64.23 69.046,68.65 v 0 c -4.279,4.42 -9.85,6.63 -16.715,6.63 v 0 c -4.64,0 -8.746,-1.074 -12.32,-3.221 M 43.397,36.09 c -2.163,2.962 -3.244,7.06 -3.244,12.295 v 0 c 0,5.893 1.097,10.32 3.291,13.283 v 0 c 2.194,2.962 5.157,4.443 8.887,4.443 v 0 c 3.792,0 6.794,-1.504 9.003,-4.514 v 0 c 2.21,-3.009 3.316,-7.084 3.316,-12.225 v 0 c 0,-5.798 -1.074,-10.202 -3.221,-13.212 v 0 c -2.147,-3.009 -5.148,-4.513 -9.004,-4.513 v 0 c -3.856,0 -6.865,1.48 -9.028,4.443" /></g></g></g></g><g
       id="g188"><g
         clip-path="url(#clipPath194)"
         id="g190"><g
           id="g196"><g
             id="g198"><path
               id="path206"
               style="fill:url(#linearGradient204);stroke:none"
               d="M 75.934,91.924 V 82.333 H 97.092 V 23.466 h 11.802 v 58.867 h 21.347 v 9.591 z" /></g></g></g></g><g
       id="g208"><g
         clip-path="url(#clipPath214)"
         id="g210"><g
           id="g216"><g
             id="g218"><path
               id="path226"
               style="fill:url(#linearGradient224);stroke:none"
               d="m 218.816,88.163 c -4.498,-3.574 -6.747,-8.119 -6.747,-13.636 v 0 c 0,-6.3 3.119,-11.409 9.357,-15.328 v 0 c 3.26,-2.036 7.647,-3.887 13.164,-5.547 v 0 c 5.518,-1.663 9.333,-3.308 11.45,-4.938 v 0 c 2.116,-1.63 3.174,-3.949 3.174,-6.958 v 0 c 0,-2.759 -1.043,-4.977 -3.127,-6.653 v 0 c -2.084,-1.678 -5.196,-2.516 -9.333,-2.516 v 0 c -4.796,0 -8.48,1.066 -11.05,3.197 v 0 c -2.571,2.131 -3.856,5.141 -3.856,9.028 v 0 h -11.895 c 0,-4.295 1.152,-8.056 3.456,-11.284 v 0 c 2.304,-3.229 5.532,-5.76 9.686,-7.594 v 0 c 4.153,-1.834 8.705,-2.751 13.659,-2.751 v 0 c 7.491,0 13.424,1.685 17.797,5.055 v 0 c 4.372,3.369 6.559,7.907 6.559,13.612 v 0 c 0,3.51 -0.753,6.574 -2.257,9.192 v 0 c -1.505,2.617 -3.871,4.936 -7.1,6.959 v 0 c -3.229,2.022 -7.508,3.824 -12.836,5.407 v 0 c -5.329,1.583 -9.153,3.213 -11.474,4.889 v 0 c -2.319,1.678 -3.479,3.77 -3.479,6.278 v 0 c 0,2.977 1.074,5.297 3.221,6.959 v 0 c 2.148,1.661 5.164,2.492 9.051,2.492 v 0 c 4.169,0 7.374,-1.012 9.615,-3.033 v 0 c 2.242,-2.022 3.363,-4.82 3.363,-8.394 v 0 h 11.848 c 0,3.95 -1.065,7.548 -3.197,10.791 v 0 c -2.132,3.245 -5.062,5.745 -8.793,7.5 v 0 c -3.729,1.756 -7.976,2.633 -12.741,2.633 v 0 c -7.178,0 -13.017,-1.787 -17.515,-5.36" /></g></g></g></g><g
       id="g228"><g
         clip-path="url(#clipPath234)"
         id="g230"><g
           id="g236"><g
             id="g238"><path
               id="path246"
               style="fill:url(#linearGradient244);stroke:none"
               d="m 273.757,68.932 c -3.636,-4.67 -5.454,-10.986 -5.454,-18.948 v 0 c 0,-8.37 1.834,-14.929 5.501,-19.677 v 0 c 3.668,-4.75 8.541,-7.124 14.623,-7.124 v 0 c 5.328,0 9.655,1.755 12.978,5.266 v 0 -23.885 h 11.425 v 70.434 h -10.156 l -0.658,-5.031 c -3.322,3.981 -7.82,5.971 -13.495,5.971 v 0 c -6.206,0 -11.128,-2.335 -14.764,-7.006 m 9.052,-32.184 c -2.054,2.962 -3.081,7.045 -3.081,12.249 v 0 c 0,6.017 1.043,10.485 3.128,13.399 v 0 c 2.084,2.916 4.945,4.373 8.58,4.373 v 0 c 4.452,0 7.774,-1.849 9.969,-5.547 v 0 -23.134 c -2.195,-3.856 -5.549,-5.783 -10.062,-5.783 v 0 c -3.637,0 -6.481,1.481 -8.534,4.443" /></g></g></g></g><g
       id="g248"><g
         clip-path="url(#clipPath254)"
         id="g250"><g
           id="g256"><g
             id="g258"><path
               id="path266"
               style="fill:url(#linearGradient264);stroke:none"
               d="M 355.57,74.998 V 38.464 c -1.943,-3.98 -5.689,-5.971 -11.238,-5.971 v 0 c -5.36,0 -8.04,3.228 -8.04,9.685 v 0 32.82 h -11.424 v -32.96 c 0,-6.113 1.417,-10.783 4.254,-14.012 v 0 c 2.837,-3.228 7.014,-4.843 12.531,-4.843 v 0 c 6.174,0 10.939,1.975 14.293,5.925 v 0 l 0.282,-4.984 h 10.767 v 50.874 z" /></g></g></g></g><g
       id="g268"><g
         clip-path="url(#clipPath274)"
         id="g270"><g
           id="g276"><g
             id="g278"><path
               id="path286"
               style="fill:url(#linearGradient284);stroke:none"
               d="m 388.412,73.869 c -3.181,-1.378 -5.696,-3.283 -7.546,-5.713 v 0 c -1.849,-2.429 -2.774,-5.038 -2.774,-7.828 v 0 h 11.425 c 0,2.006 0.831,3.659 2.492,4.961 v 0 c 1.662,1.3 3.794,1.951 6.395,1.951 v 0 c 3.009,0 5.25,-0.792 6.724,-2.374 v 0 c 1.472,-1.583 2.21,-3.691 2.21,-6.325 v 0 -3.339 h -7.006 c -7.492,0 -13.252,-1.449 -17.279,-4.348 v 0 c -4.029,-2.9 -6.042,-7.061 -6.042,-12.483 v 0 c 0,-4.295 1.614,-7.9 4.843,-10.816 v 0 c 3.228,-2.914 7.397,-4.372 12.506,-4.372 v 0 c 5.267,0 9.717,1.896 13.354,5.69 v 0 c 0.376,-2.194 0.814,-3.777 1.316,-4.749 v 0 h 11.661 v 0.799 c -1.286,2.727 -1.928,6.379 -1.928,10.955 v 0 22.945 c -0.094,5.424 -1.913,9.631 -5.454,12.624 v 0 c -3.543,2.995 -8.291,4.491 -14.246,4.491 v 0 c -3.92,0 -7.469,-0.689 -10.651,-2.069 m 2.21,-39.566 c -1.457,1.301 -2.187,3.049 -2.187,5.242 v 0 c 0,2.697 1.067,4.781 3.198,6.254 v 0 c 2.131,1.474 5.313,2.21 9.545,2.21 v 0 h 6.16 v -9.592 c -1.004,-1.849 -2.5,-3.322 -4.491,-4.42 v 0 c -1.991,-1.097 -4.114,-1.646 -6.37,-1.646 v 0 c -2.446,0 -4.396,0.651 -5.855,1.952" /></g></g></g></g><g
       id="g288"><g
         clip-path="url(#clipPath294)"
         id="g290"><g
           id="g296"><g
             id="g298"><path
               id="path306"
               style="fill:url(#linearGradient304);stroke:none"
               d="m 441.896,69.309 -0.282,5.689 H 430.706 V 24.124 h 11.426 v 34.794 c 1.817,4.012 5.343,6.018 10.579,6.018 v 0 c 1.598,0 3.151,-0.125 4.655,-0.376 v 0 l 0.046,10.72 c -1.065,0.439 -2.413,0.658 -4.043,0.658 v 0 c -4.891,0 -8.715,-2.21 -11.473,-6.629" /></g></g></g></g><g
       id="g308"><g
         clip-path="url(#clipPath314)"
         id="g310"><g
           id="g316"><g
             id="g318"><path
               id="path326"
               style="fill:url(#linearGradient324);stroke:none"
               d="m 472.928,72.599 c -3.541,-2.225 -6.292,-5.336 -8.252,-9.333 v 0 c -1.958,-3.996 -2.937,-8.533 -2.937,-13.611 v 0 -1.41 c 0,-7.587 2.248,-13.66 6.746,-18.22 v 0 c 4.498,-4.561 10.367,-6.842 17.609,-6.842 v 0 c 4.231,0 8.047,0.839 11.449,2.516 v 0 c 3.401,1.676 6.12,4.035 8.157,7.076 v 0 l -6.159,5.877 c -3.291,-4.231 -7.553,-6.347 -12.79,-6.347 v 0 c -3.728,0 -6.824,1.223 -9.285,3.667 v 0 c -2.461,2.445 -3.863,5.768 -4.208,9.968 v 0 H 506.5 v 4.608 c 0,8.087 -1.889,14.341 -5.666,18.761 v 0 c -3.778,4.419 -9.129,6.629 -16.057,6.629 v 0 c -4.357,0 -8.306,-1.113 -11.849,-3.339 m 4.209,-9.121 c 1.928,2.194 4.458,3.291 7.593,3.291 v 0 c 3.166,0 5.643,-0.979 7.43,-2.938 v 0 c 1.786,-1.96 2.805,-4.851 3.056,-8.675 v 0 -0.846 h -21.77 c 0.533,3.917 1.763,6.974 3.691,9.168" /></g></g></g></g></g></svg>